<svg width="30.000000" height="30.000000" viewBox="0 0 30 30" fill="none" xmlns="http://www.w3.org/2000/svg" xmlns:xlink="http://www.w3.org/1999/xlink">
	<desc>
			Created with Pixso.
	</desc>
	<defs/>
	<path id="Path" d="M28.34 0L1.65 0C0.74 0 0 0.74 0 1.65L0 28.34C0 29.25 0.74 30 1.65 30L16.02 30L16.02 18.38L12.11 18.38L12.11 13.85L16.02 13.85L16.02 10.51C16.02 6.64 18.39 4.53 21.84 4.53C23.5 4.53 24.92 4.65 25.34 4.7L25.34 8.76L22.94 8.76C21.06 8.76 20.7 9.65 20.7 10.96L20.7 13.85L25.18 13.85L24.6 18.38L20.7 18.38L20.7 30L28.34 30C29.25 30 30 29.25 30 28.34L30 1.65C30 0.74 29.25 0 28.34 0Z" fill="#333333" fill-opacity="1.000000" fill-rule="nonzero"/>
</svg>
