<svg width="30.000000" height="30.000000" viewBox="0 0 30 30" fill="none" xmlns="http://www.w3.org/2000/svg" xmlns:xlink="http://www.w3.org/1999/xlink">
	<desc>
			Created with Pixso.
	</desc>
	<defs/>
	<path id="Shape" d="M15 0C10.9263 0 10.4163 0.0175781 8.81628 0.0900879C3.36877 0.340088 0.341309 3.36255 0.0913086 8.81494C0.0174561 10.4163 0 10.9263 0 15C0 19.0737 0.0174561 19.585 0.0899658 21.1851C0.339966 26.6326 3.36255 29.6599 8.81494 29.9099C10.4163 29.9824 10.9263 30 15 30C19.0737 30 19.585 29.9824 21.1851 29.9099C26.6274 29.6599 29.6625 26.6375 29.9087 21.1851C29.9825 19.585 30 19.0737 30 15C30 10.9263 29.9825 10.4163 29.91 8.81616C29.665 3.37378 26.6388 0.341309 21.1863 0.0913086C19.585 0.0175781 19.0737 0 15 0ZM21.0626 2.79126C19.4801 2.71875 19.0051 2.70386 15.0001 2.70386C10.9951 2.70386 10.5214 2.71875 8.93884 2.79004C4.87012 2.9751 2.97644 4.90503 2.79016 8.93896C2.71887 10.5212 2.70264 10.9951 2.70264 15C2.70264 19.0063 2.71765 19.4802 2.79016 21.0613C2.9751 25.0876 4.86389 27.0251 8.93884 27.2114C10.5201 27.2839 10.9951 27.2988 15.0001 27.2988C19.0077 27.2988 19.4801 27.2839 21.0626 27.2114C25.1313 27.0264 27.0251 25.0938 27.2114 21.0625C27.2826 19.4814 27.2976 19.0076 27.2976 15.0015C27.2976 10.9963 27.2839 10.5212 27.2114 8.94019C27.0264 4.90503 25.1277 2.97632 21.0626 2.79126ZM21.2061 6.99341C21.2061 5.99976 22.0123 5.19336 23.0073 5.19336C24.0011 5.19336 24.806 5.99976 24.806 6.99341C24.806 7.9873 24.0011 8.79346 23.0073 8.79346C22.0123 8.79346 21.2061 7.9873 21.2061 6.99341ZM7.29736 14.9998C7.29736 10.7461 10.7461 7.29736 14.9999 7.29736C19.2537 7.29736 22.7024 10.7461 22.7024 14.9998C22.7024 19.2549 19.2537 22.7036 14.9999 22.7036C10.7461 22.7036 7.29736 19.2537 7.29736 14.9998ZM15 20C12.2388 20 10 17.7625 10 15C10 12.2388 12.2388 10 15 10C17.7612 10 20 12.2388 20 15C20 17.7625 17.7612 20 15 20Z" clip-rule="evenodd" fill="#333333" fill-opacity="1.000000" fill-rule="evenodd"/>
</svg>
