<svg width="30.000000" height="25.000000" viewBox="0 0 30 25" fill="none" xmlns="http://www.w3.org/2000/svg" xmlns:xlink="http://www.w3.org/1999/xlink">
	<desc>
			Created with Pixso.
	</desc>
	<defs/>
	<path id="Path" d="M30 2.95C28.89 3.46 27.71 3.8 26.46 3.95C27.73 3.17 28.71 1.93 29.17 0.46C27.98 1.18 26.66 1.7 25.26 1.99C24.14 0.76 22.54 0 20.77 0C16.79 0 13.87 3.8 14.77 7.74C9.66 7.48 5.12 4.97 2.08 1.15C0.47 3.99 1.25 7.7 3.99 9.58C2.98 9.54 2.03 9.26 1.2 8.79C1.13 11.71 3.18 14.45 6.14 15.05C5.27 15.3 4.32 15.35 3.36 15.16C4.14 17.67 6.41 19.49 9.11 19.54C6.52 21.63 3.26 22.55 0 22.16C2.72 23.95 5.95 25 9.43 25C20.86 25 27.31 15.1 26.92 6.22C28.13 5.33 29.17 4.22 30 2.95Z" fill="#333333" fill-opacity="1.000000" fill-rule="nonzero"/>
</svg>
